<svg width="131" height="134" viewBox="0 0 131 134" fill="none" xmlns="http://www.w3.org/2000/svg">
<path d="M39.3046 37.6639L61.3046 59.6639" stroke="#F9FAFB" stroke-width="10"/>
<path d="M74 71L96 93" stroke="#F9FAFB" stroke-width="10"/>
<path d="M118.766 69.2955L69.387 118.607" stroke="#F9FAFB" stroke-width="10" stroke-linecap="round"/>
<path d="M63.1979 13.8036L13.8186 63.1149" stroke="#F9FAFB" stroke-width="10" stroke-linecap="round"/>
<path d="M119.995 86.4288L83.3582 123.015" stroke="#F9FAFB" stroke-width="10" stroke-linecap="round"/>
<path d="M124.406 100.379L97.3274 127.42" stroke="#F9FAFB" stroke-width="10" stroke-linecap="round"/>
<path d="M47.636 10.9886L10.9997 47.5744" stroke="#F9FAFB" stroke-width="10" stroke-linecap="round"/>
<path d="M33.6669 6.58293L6.58789 33.6246" stroke="#F9FAFB" stroke-width="10" stroke-linecap="round"/>
<path d="M116.117 30.0528L113.92 32.2468L100.738 19.0825L102.935 16.8885C104.683 15.1428 107.054 14.1621 109.526 14.1621C111.998 14.1621 114.369 15.1428 116.117 16.8885V16.8885C117.865 18.6342 118.847 21.0019 118.847 23.4706C118.847 25.9394 117.865 28.3071 116.117 30.0528V30.0528Z" fill="#F9FAFB"/>
<path d="M115.019 28.9558L114.531 29.4428C114.369 29.6046 114.149 29.6955 113.92 29.6955C113.691 29.6955 113.471 29.6046 113.309 29.4428L103.546 19.6925C103.384 19.5307 103.293 19.3113 103.293 19.0825C103.293 18.8538 103.384 18.6344 103.546 18.4726L104.033 17.9855C104.755 17.2652 105.611 16.6938 106.553 16.304C107.496 15.9141 108.506 15.7135 109.526 15.7135C111.586 15.7135 113.562 16.5308 115.019 17.9855V17.9855C116.475 19.4403 117.294 21.4133 117.294 23.4706C117.294 25.528 116.475 27.501 115.019 28.9558V28.9558Z" stroke="#F9FAFB"/>
<path d="M20.4253 103.046L29.8404 112.448L16.8122 116.057L20.4253 103.046Z" fill="#F9FAFB"/>
<path d="M19.0433 113.829L26.8584 111.664L21.2107 106.024L19.0433 113.829ZM14.5815 118.284L19.6404 100.068L32.8228 113.232L14.5815 118.284Z" fill="#F9FAFB"/>
<path d="M24.1971 99.7916L100.9 23.194L98.7032 21L22 97.5975L24.1971 99.7916Z" fill="#F9FAFB"/>
<path d="M79.1564 48.7561L102.827 25.1179L100.63 22.9239L76.9593 46.562L79.1564 48.7561Z" fill="#F9FAFB"/>
<path d="M26.217 101.812L49.8679 78.194L47.6708 76L24.02 99.6183L26.217 101.812Z" fill="#F9FAFB"/>
<path d="M35.2155 110.8L111.919 34.2028L102.703 25L26 101.598L35.2155 110.8Z" fill="#F9FAFB"/>
</svg>
