<svg width="144" height="144" viewBox="0 0 144 144" fill="none" xmlns="http://www.w3.org/2000/svg">
<rect width="65.8572" height="9.87859" rx="4.93929" transform="matrix(0.698766 -0.715754 0.698766 0.715754 20.5564 69.7767)" fill="#F9FAFB"/>
<rect width="52.6858" height="9.87859" rx="4.93929" transform="matrix(0.698766 -0.715754 0.698766 0.715754 15.9524 55.6356)" fill="#F9FAFB"/>
<rect width="39.5144" height="9.87859" rx="4.93929" transform="matrix(0.698766 -0.715754 0.698766 0.715754 11.3521 41.4946)" fill="#F9FAFB"/>
<rect width="65.8572" height="9.87859" rx="4.93929" transform="matrix(-0.698766 0.715754 -0.698766 -0.715754 120.15 77.5179)" fill="#F9FAFB"/>
<rect width="52.6858" height="9.87859" rx="4.93929" transform="matrix(-0.698766 0.715754 -0.698766 -0.715754 124.753 91.6589)" fill="#F9FAFB"/>
<rect width="39.5143" height="9.87859" rx="4.93929" transform="matrix(-0.698766 0.715754 -0.698766 -0.715754 129.354 105.801)" fill="#F9FAFB"/>
<rect width="16.4643" height="20.5347" transform="matrix(0.698766 -0.715754 0.698766 0.715754 46.3098 57.471)" fill="#F9FAFB"/>
<rect width="16.4643" height="19.7148" transform="matrix(0.698766 -0.715754 0.698766 0.715754 72.3562 84.1503)" fill="#F9FAFB"/>
<path d="M115.35 40.1384L113.408 42.1272L101.483 30.4848L103.424 28.4961C104.969 26.9137 107.079 26.0095 109.289 25.9823C111.5 25.9551 113.63 26.8072 115.212 28.3511V28.3511C116.793 29.8949 117.696 32.0042 117.722 34.2147C117.748 36.4253 116.895 38.5561 115.35 40.1384V40.1384Z" fill="#F9FAFB"/>
<path d="M114.352 39.1688L113.921 39.6103C113.778 39.757 113.582 39.8408 113.377 39.8433C113.173 39.8458 112.975 39.7668 112.829 39.6238L103.996 31.0007C103.849 30.8576 103.766 30.6621 103.763 30.4573C103.761 30.2525 103.84 30.055 103.983 29.9084L104.414 29.4669C105.051 28.814 105.811 28.2929 106.65 27.9335C107.488 27.5741 108.389 27.3833 109.302 27.3721C111.144 27.3494 112.919 28.0595 114.237 29.346V29.346C115.555 30.6326 116.307 32.3903 116.329 34.2324C116.35 36.0745 115.639 37.8502 114.352 39.1688V39.1688Z" fill="#F9FAFB"/>
<path d="M30.5503 106.549L39.0677 114.864L27.4561 118.238L30.5503 106.549Z" fill="#F9FAFB"/>
<path d="M29.4268 116.22L36.3921 114.196L31.2829 109.208L29.4268 116.22ZM25.484 120.259L29.8162 103.892L41.7418 115.535L25.484 120.259Z" fill="#F9FAFB"/>
<path d="M33.8901 103.595L101.672 34.1655L99.684 32.2251L31.9025 101.655L33.8901 103.595Z" fill="#F9FAFB"/>
<path d="M82.4943 57.2936L103.412 35.8675L101.424 33.9271L80.5067 55.3532L82.4943 57.2936Z" fill="#F9FAFB"/>
<path d="M35.7167 105.382L56.6167 83.974L54.6291 82.0336L33.7291 103.442L35.7167 105.382Z" fill="#F9FAFB"/>
<path d="M43.8569 113.331L111.638 43.9018L103.302 35.7629L35.5201 105.192L43.8569 113.331Z" fill="#F9FAFB"/>
</svg>
